<svg xmlns="http://www.w3.org/2000/svg" width="30" height="24" viewBox="0 0 30 24">
  <defs>
    <style>
      .cls-1 {
        fill: #04e4a2;
        fill-rule: evenodd;
      }
    </style>
  </defs>
  <path id="mail-icon.svg" class="cls-1" d="M686.294,1098H667.706a5.618,5.618,0,0,0-5.707,5.52v12.96a5.618,5.618,0,0,0,5.707,5.52h18.588a5.617,5.617,0,0,0,5.706-5.52v-12.96A5.617,5.617,0,0,0,686.294,1098Zm-18.588,2.56h18.588a3.013,3.013,0,0,1,3.054,2.96v2.26L677,1111.28l-12.349-5.5v-2.26A3.013,3.013,0,0,1,667.706,1100.56Zm18.588,18.88H667.706a3.013,3.013,0,0,1-3.054-2.96v-7.88l11.794,5.26a1.343,1.343,0,0,0,1.11,0l11.792-5.26v7.88A3.013,3.013,0,0,1,686.294,1119.44Z" transform="translate(-662 -1098)"/>
</svg>
